<svg class="mcdf-icon mcdf-icon--fantasy-glamour" xmlns="http://www.w3.org/2000/svg" viewBox="0 0 24 24" width="24" height="24" fill="none" stroke="currentColor" stroke-width="1.65" stroke-linecap="round" stroke-linejoin="round" aria-label="Loading">
  <path d="M12 3a9 9 0 0 1 9 9" />
  <path d="M21 12a9 9 0 0 1-2.6 6.4" opacity="0.7" />
  <path d="M18.4 18.4a9 9 0 0 1-3.1 1.9" opacity="0.5" />
  <path d="M15.3 20.3a9 9 0 0 1-9-4.3" opacity="0.3" />
  <path d="M6.3 16a9 9 0 0 1 0-8" opacity="0.15" />

  <path class="icon-aura" d="M5.5 20.5c3-1.7 10-1.7 13 0" opacity="0.16" />

  <g class="icon-glamour" opacity="0.58" stroke="currentColor" fill="none" stroke-linecap="round" stroke-linejoin="round">
    <path d="M18.5 2.8v3.1" stroke-width="1.35" />
    <path d="M16.95 4.35h3.1" stroke-width="1.35" />
    <circle cx="20.8" cy="6.9" r="0.55" fill="currentColor" stroke="none" opacity="0.55" />
  </g>
</svg>
