<svg class="mcdf-icon mcdf-icon--fantasy-glamour" xmlns="http://www.w3.org/2000/svg" viewBox="0 0 24 24" width="24" height="24" fill="none" stroke="currentColor" stroke-width="1.65" stroke-linecap="round" stroke-linejoin="round" aria-label="Add from link">
  <path d="M9 14a3.5 3.5 0 0 1 0-5l2-2a3.5 3.5 0 0 1 5 5l-1 1" />
  <path d="M15 10a3.5 3.5 0 0 1 0 5l-2 2a3.5 3.5 0 0 1-5-5l1-1" />
  <line x1="19" y1="5" x2="19" y2="11" />
  <line x1="21.5" y1="8" x2="16.5" y2="8" />

  <path class="icon-aura" d="M5.5 20.5c3-1.7 10-1.7 13 0" opacity="0.16" />

  <g class="icon-glamour" opacity="0.58" stroke="currentColor" fill="none" stroke-linecap="round" stroke-linejoin="round">
    <path d="M18.5 2.8v3.1" stroke-width="1.35" />
    <path d="M16.95 4.35h3.1" stroke-width="1.35" />
    <circle cx="20.8" cy="6.9" r="0.55" fill="currentColor" stroke="none" opacity="0.55" />
  </g>
</svg>
