<svg class="mcdf-icon mcdf-icon--fantasy-glamour" xmlns="http://www.w3.org/2000/svg" viewBox="0 0 24 24" width="24" height="24" fill="none" stroke="currentColor" stroke-width="1.65" stroke-linecap="round" stroke-linejoin="round" aria-label="Unknown file">
  <path d="M5 3.5h9l5 5v12a1.5 1.5 0 0 1-1.5 1.5h-12.5A1.5 1.5 0 0 1 3.5 20.5V5A1.5 1.5 0 0 1 5 3.5z" />
  <polyline points="14 3.5 14 8.5 19 8.5" />
  <path d="M9.5 10.5c0-1 1-1.7 2-1.7s2 .6 2 1.6c0 1.4-2 1.4-2 2.6" />
  <circle cx="11.5" cy="15.5" r="0.5" fill="currentColor" stroke="none" />

  <path class="icon-aura" d="M5.5 20.5c3-1.7 10-1.7 13 0" opacity="0.16" />

  <g class="icon-glamour" opacity="0.58" stroke="currentColor" fill="none" stroke-linecap="round" stroke-linejoin="round">
    <path d="M18.5 2.8v3.1" stroke-width="1.35" />
    <path d="M16.95 4.35h3.1" stroke-width="1.35" />
    <circle cx="20.8" cy="6.9" r="0.55" fill="currentColor" stroke="none" opacity="0.55" />
  </g>
</svg>
