<svg class="mcdf-icon mcdf-icon--fantasy-glamour" xmlns="http://www.w3.org/2000/svg" viewBox="0 0 24 24" width="24" height="24" fill="none" stroke="currentColor" stroke-width="1.65" stroke-linecap="round" stroke-linejoin="round" aria-label="Library">
  <path d="M3 4.5h3a2 2 0 0 1 2 2v13" />
  <path d="M8 6.5h3a2 2 0 0 1 2 2v11" />
  <path d="M13 8.5h3a2 2 0 0 1 2 2v9" />
  <path class="icon-accent" d="M18 10.5h3a2 2 0 0 1 2 2v7" />
  <line x1="3" y1="20" x2="21" y2="20" />

  <path class="icon-aura" d="M5.5 20.5c3-1.7 10-1.7 13 0" opacity="0.16" />

  <g class="icon-glamour" opacity="0.58" stroke="currentColor" fill="none" stroke-linecap="round" stroke-linejoin="round">
    <path d="M18.5 2.8v3.1" stroke-width="1.35" />
    <path d="M16.95 4.35h3.1" stroke-width="1.35" />
    <circle cx="20.8" cy="6.9" r="0.55" fill="currentColor" stroke="none" opacity="0.55" />
  </g>
</svg>
