<svg class="mcdf-icon mcdf-icon--fantasy-glamour" xmlns="http://www.w3.org/2000/svg" viewBox="0 0 24 24" width="24" height="24" fill="none" stroke="currentColor" stroke-width="1.65" stroke-linecap="round" stroke-linejoin="round" aria-label="Settings">
  <circle cx="12" cy="12" r="3" />
  <path d="M19.4 15a1.7 1.7 0 0 0 .3 1.8l.1.1a2 2 0 1 1-2.8 2.8l-.1-.1a1.7 1.7 0 0 0-1.8-.3 1.7 1.7 0 0 0-1 1.5V21a2 2 0 1 1-4 0v-.1a1.7 1.7 0 0 0-1.1-1.5 1.7 1.7 0 0 0-1.8.3l-.1.1a2 2 0 1 1-2.8-2.8l.1-.1a1.7 1.7 0 0 0 .3-1.8 1.7 1.7 0 0 0-1.5-1H3a2 2 0 1 1 0-4h.1a1.7 1.7 0 0 0 1.5-1.1 1.7 1.7 0 0 0-.3-1.8l-.1-.1a2 2 0 1 1 2.8-2.8l.1.1a1.7 1.7 0 0 0 1.8.3H9a1.7 1.7 0 0 0 1-1.5V3a2 2 0 1 1 4 0v.1a1.7 1.7 0 0 0 1 1.5 1.7 1.7 0 0 0 1.8-.3l.1-.1a2 2 0 1 1 2.8 2.8l-.1.1a1.7 1.7 0 0 0-.3 1.8V9a1.7 1.7 0 0 0 1.5 1H21a2 2 0 1 1 0 4h-.1a1.7 1.7 0 0 0-1.5 1z" />

  <path class="icon-aura" d="M5.5 20.5c3-1.7 10-1.7 13 0" opacity="0.16" />

  <g class="icon-glamour" opacity="0.58" stroke="currentColor" fill="none" stroke-linecap="round" stroke-linejoin="round">
    <path d="M18.5 2.8v3.1" stroke-width="1.35" />
    <path d="M16.95 4.35h3.1" stroke-width="1.35" />
    <circle cx="20.8" cy="6.9" r="0.55" fill="currentColor" stroke="none" opacity="0.55" />
  </g>
</svg>
