<svg class="mcdf-icon mcdf-icon--fantasy-glamour" xmlns="http://www.w3.org/2000/svg" viewBox="0 0 24 24" width="24" height="24" fill="none" stroke="currentColor" stroke-width="1.65" stroke-linecap="round" stroke-linejoin="round" aria-label="Delete listing">
  <polyline points="3 6 5.5 6 21 6" />
  <path d="M19 6l-1.2 12.4a1.5 1.5 0 0 1-1.5 1.4H7.7a1.5 1.5 0 0 1-1.5-1.4L5 6" />
  <path d="M9 6V4.5A1.5 1.5 0 0 1 10.5 3h3A1.5 1.5 0 0 1 15 4.5V6" />
  <line x1="10" y1="11" x2="10" y2="17" />
  <line x1="14" y1="11" x2="14" y2="17" />

  <path class="icon-aura" d="M5.5 20.5c3-1.7 10-1.7 13 0" opacity="0.16" />

  <g class="icon-glamour" opacity="0.52" stroke="currentColor" fill="none" stroke-linecap="round" stroke-linejoin="round">
    <path d="M5.1 17.8v2.8" stroke-width="1.25" />
    <path d="M3.7 19.2h2.8" stroke-width="1.25" />
    <circle cx="7.8" cy="16.8" r="0.5" fill="currentColor" stroke="none" opacity="0.5" />
  </g>
</svg>
