<svg class="mcdf-icon mcdf-icon--fantasy-glamour" xmlns="http://www.w3.org/2000/svg" viewBox="0 0 24 24" width="24" height="24" fill="none" stroke="currentColor" stroke-width="1.65" stroke-linecap="round" stroke-linejoin="round" aria-label="Public index">
  <path d="M3 5.5A1.5 1.5 0 0 1 4.5 4H11v15.5H4.5A1.5 1.5 0 0 1 3 18V5.5z" />
  <path d="M21 5.5A1.5 1.5 0 0 0 19.5 4H13v15.5h6.5a1.5 1.5 0 0 0 1.5-1.5V5.5z" />
  <line x1="6" y1="8" x2="9" y2="8" opacity="0.5" />
  <line x1="6" y1="11" x2="9" y2="11" opacity="0.5" />
  <line x1="6" y1="14" x2="8.5" y2="14" opacity="0.5" />
  <line x1="15" y1="8" x2="18" y2="8" opacity="0.5" />
  <line x1="15" y1="11" x2="18" y2="11" opacity="0.5" />
  <line x1="15" y1="14" x2="17.5" y2="14" opacity="0.5" />

  <path class="icon-aura" d="M5.5 20.5c3-1.7 10-1.7 13 0" opacity="0.16" />

  <g class="icon-glamour" opacity="0.48" stroke="currentColor" fill="none" stroke-linecap="round" stroke-linejoin="round">
    <path d="M8.2 4.9l1.5-1.8 1.5 1.8 1.6-1.8 1.5 1.8" stroke-width="1.15" />
    <path d="M8.6 6h5.3" stroke-width="1.15" />
  </g>
</svg>
